<svg width="36" height="30" viewBox="0 0 36 30" fill="none" xmlns="http://www.w3.org/2000/svg">
<g clip-path="url(#clip0)">
<path d="M36 0H0V30H36V0Z"/>
<path d="M-296.809 26.4375C-296.809 25.6172 -296.738 24.9023 -296.598 24.293C-296.457 23.6836 -296.188 23.1797 -295.789 22.7812C-295.391 22.3594 -294.84 22.043 -294.137 21.832C-293.434 21.6211 -292.52 21.5156 -291.395 21.5156H-275.715C-274.098 21.5156 -272.492 21.6211 -270.898 21.832C-269.305 22.0195 -267.781 22.3477 -266.328 22.8164C-264.852 23.2852 -263.492 23.8945 -262.25 24.6445C-260.984 25.3945 -259.895 26.332 -258.98 27.457C-258.043 28.5586 -257.316 29.8594 -256.801 31.3594C-256.262 32.8359 -255.992 34.5469 -255.992 36.4922C-255.992 39.375 -256.391 41.8125 -257.188 43.8047C-257.961 45.7734 -259.016 47.4023 -260.352 48.6914C-261.688 49.9805 -263.246 50.9648 -265.027 51.6445C-266.785 52.3242 -268.637 52.8164 -270.582 53.1211V66.3047C-270.582 66.8438 -270.629 67.4414 -270.723 68.0977C-270.816 68.7539 -271.051 69.375 -271.426 69.9609C-271.801 70.5234 -272.375 71.0039 -273.148 71.4023C-273.922 71.8008 -274.988 72 -276.348 72H-291.395C-292.52 72 -293.434 71.8945 -294.137 71.6836C-294.84 71.4727 -295.391 71.168 -295.789 70.7695C-296.188 70.3711 -296.457 69.8672 -296.598 69.2578C-296.738 68.6484 -296.809 67.9336 -296.809 67.1133V26.4375ZM-260.949 37.0195C-260.949 35.6133 -261.137 34.3242 -261.512 33.1523C-261.887 31.957 -262.461 30.9141 -263.234 30.0234C-264.008 29.1328 -265.004 28.3945 -266.223 27.8086C-267.441 27.2227 -268.895 26.8242 -270.582 26.6133V48.4453C-268.895 48.1875 -267.441 47.7188 -266.223 47.0391C-265.004 46.3594 -264.008 45.5156 -263.234 44.5078C-262.461 43.5 -261.887 42.3633 -261.512 41.0977C-261.137 39.8086 -260.949 38.4492 -260.949 37.0195ZM-251.316 40.8867C-251.316 40.0898 -251.246 39.3867 -251.105 38.7773C-250.965 38.1445 -250.695 37.6289 -250.297 37.2305C-249.898 36.832 -249.348 36.5273 -248.645 36.3164C-247.941 36.1055 -247.027 36 -245.902 36H-230.504C-229.426 36 -228.559 36.1055 -227.902 36.3164C-227.246 36.5273 -226.73 36.8438 -226.355 37.2656C-225.98 37.6875 -225.734 38.2148 -225.617 38.8477C-225.477 39.4805 -225.406 40.2188 -225.406 41.0625V43.6641L-217.602 36.0703C-217.086 35.5781 -216.605 35.332 -216.16 35.332C-215.902 35.332 -215.68 35.3906 -215.492 35.5078C-215.281 35.6016 -215.105 35.7188 -214.965 35.8594L-213.383 37.5117C-213.031 37.8633 -212.855 38.25 -212.855 38.6719C-212.855 38.9297 -212.938 39.1992 -213.102 39.4805C-213.242 39.7383 -213.477 39.9961 -213.805 40.2539L-225.406 49.2539V67.043C-225.406 67.8633 -225.465 68.5898 -225.582 69.2227C-225.699 69.832 -225.957 70.3477 -226.355 70.7695C-226.754 71.168 -227.328 71.4727 -228.078 71.6836C-228.828 71.8945 -229.848 72 -231.137 72H-245.902C-247.027 72 -247.941 71.8945 -248.645 71.6836C-249.348 71.4727 -249.898 71.168 -250.297 70.7695C-250.695 70.3711 -250.965 69.8672 -251.105 69.2578C-251.246 68.6484 -251.316 67.9336 -251.316 67.1133V40.8867ZM-212.223 40.8867C-212.223 40.0898 -212.152 39.3867 -212.012 38.7773C-211.871 38.1445 -211.602 37.6289 -211.203 37.2305C-210.805 36.832 -210.254 36.5273 -209.551 36.3164C-208.848 36.1055 -207.934 36 -206.809 36H-191.41C-190.332 36 -189.465 36.1055 -188.809 36.3164C-188.129 36.5039 -187.602 36.7969 -187.227 37.1953C-186.852 37.5938 -186.605 38.0977 -186.488 38.707C-186.371 39.3164 -186.312 40.043 -186.312 40.8867V67.1836C-186.312 67.9805 -186.371 68.6836 -186.488 69.293C-186.605 69.8789 -186.852 70.3828 -187.227 70.8047C-187.602 71.2031 -188.129 71.5078 -188.809 71.7188C-189.465 71.9062 -190.332 72 -191.41 72H-206.809C-207.934 72 -208.848 71.8945 -209.551 71.6836C-210.254 71.4727 -210.805 71.168 -211.203 70.7695C-211.602 70.3711 -211.871 69.8672 -212.012 69.2578C-212.152 68.6484 -212.223 67.9336 -212.223 67.1133V40.8867ZM-210.922 20.9531C-210.922 19.3359 -210.617 17.8125 -210.008 16.3828C-209.375 14.9531 -208.531 13.7109 -207.477 12.6562C-206.422 11.6016 -205.18 10.7695 -203.75 10.1602C-202.32 9.52734 -200.797 9.21094 -199.18 9.21094C-197.586 9.21094 -196.086 9.52734 -194.68 10.1602C-193.25 10.7695 -192.008 11.6016 -190.953 12.6562C-189.898 13.7109 -189.066 14.9531 -188.457 16.3828C-187.824 17.8125 -187.508 19.3359 -187.508 20.9531C-187.508 22.5469 -187.824 24.0586 -188.457 25.4883C-189.066 26.8945 -189.898 28.125 -190.953 29.1797C-192.008 30.2344 -193.25 31.0781 -194.68 31.7109C-196.086 32.3203 -197.586 32.625 -199.18 32.625C-200.797 32.625 -202.32 32.3203 -203.75 31.7109C-205.18 31.0781 -206.422 30.2344 -207.477 29.1797C-208.531 28.125 -209.375 26.8945 -210.008 25.4883C-210.617 24.0586 -210.922 22.5469 -210.922 20.9531ZM-154.742 34.7695C-153.242 34.7695 -151.742 34.8633 -150.242 35.0508C-148.742 35.2148 -147.324 35.4375 -145.988 35.7188C-144.629 36 -143.398 36.3164 -142.297 36.668C-141.172 36.9961 -140.258 37.3242 -139.555 37.6523C-139.438 37.6992 -139.32 37.7695 -139.203 37.8633C-139.062 37.957 -138.992 38.1328 -138.992 38.3906C-138.992 38.4609 -139.004 38.5547 -139.027 38.6719C-139.051 38.7891 -139.074 38.9062 -139.098 39.0234L-139.52 41.0977C-139.566 41.3789 -139.637 41.5547 -139.73 41.625C-139.801 41.6719 -139.871 41.6953 -139.941 41.6953C-140.059 41.6953 -140.281 41.6602 -140.609 41.5898C-140.938 41.5195 -141.289 41.4844 -141.664 41.4844C-143 41.4844 -144.055 41.8477 -144.828 42.5742C-145.602 43.2773 -146.094 44.5195 -146.305 46.3008L-148.273 62.7188C-148.461 64.1719 -148.953 65.5312 -149.75 66.7969C-150.523 68.0625 -151.648 69.1758 -153.125 70.1367C-154.602 71.0977 -156.43 71.8477 -158.609 72.3867C-160.766 72.9492 -163.297 73.2305 -166.203 73.2305C-168.031 73.2305 -169.812 73.1133 -171.547 72.8789C-173.281 72.668 -174.887 72.3984 -176.363 72.0703C-177.816 71.7656 -179.094 71.4609 -180.195 71.1562C-181.273 70.8281 -182.082 70.5703 -182.621 70.3828C-182.809 70.3359 -182.949 70.2773 -183.043 70.207C-183.16 70.1133 -183.219 69.9727 -183.219 69.7852C-183.219 69.6914 -183.207 69.5859 -183.184 69.4688C-183.16 69.3516 -183.125 69.2109 -183.078 69.0469L-182.656 67.0781C-182.609 66.8906 -182.527 66.7383 -182.41 66.6211C-182.293 66.5039 -182.082 66.4453 -181.777 66.4453C-181.004 66.4453 -180.23 66.4102 -179.457 66.3398C-178.66 66.2461 -177.934 66.0234 -177.277 65.6719C-176.598 65.3203 -176.012 64.7812 -175.52 64.0547C-175.004 63.3281 -174.652 62.3086 -174.465 60.9961L-172.004 44.0508C-171.746 42.2695 -171.09 40.7812 -170.035 39.5859C-168.98 38.3906 -167.68 37.4414 -166.133 36.7383C-164.562 36.0117 -162.793 35.5078 -160.824 35.2266C-158.855 34.9219 -156.828 34.7695 -154.742 34.7695ZM-138.078 47.5312C-138.57 47.5312 -138.816 47.2734 -138.816 46.7578V43.9453C-138.816 43.4531 -138.57 43.207 -138.078 43.207H-134.422V35.2266C-134.422 34.875 -134.375 34.5234 -134.281 34.1719C-134.164 33.8203 -133.871 33.5508 -133.402 33.3633L-113.996 26.1914C-113.105 25.8633 -112.367 25.6172 -111.781 25.4531C-111.195 25.2891 -110.68 25.207 -110.234 25.207C-110.07 25.207 -109.895 25.2422 -109.707 25.3125C-109.496 25.3594 -109.309 25.4531 -109.145 25.5938C-108.957 25.7344 -108.805 25.9336 -108.688 26.1914C-108.57 26.4258 -108.512 26.7188 -108.512 27.0703V43.207H-102.184C-101.691 43.207 -101.445 43.4531 -101.445 43.9453V46.7578C-101.445 47.2734 -101.691 47.5312 -102.184 47.5312H-108.512V61.6992C-108.512 63.3633 -108.242 64.5352 -107.703 65.2148C-107.141 65.8945 -106.285 66.2344 -105.137 66.2344C-104.879 66.2344 -104.609 66.2109 -104.328 66.1641C-104.047 66.0938 -103.789 66.0352 -103.555 65.9883C-103.297 65.918 -103.062 65.8594 -102.852 65.8125C-102.641 65.7422 -102.465 65.707 -102.324 65.707C-102.066 65.707 -101.938 65.8594 -101.938 66.1641V68.8711C-101.938 69.3398 -102.031 69.6562 -102.219 69.8203C-102.406 69.9844 -102.57 70.0898 -102.711 70.1367C-103.602 70.5117 -104.656 70.8867 -105.875 71.2617C-107.07 71.6367 -108.371 71.9648 -109.777 72.2461C-111.16 72.5508 -112.625 72.7852 -114.172 72.9492C-115.719 73.1367 -117.266 73.2305 -118.812 73.2305C-121.039 73.2305 -123.113 73.1133 -125.035 72.8789C-126.934 72.668 -128.586 72.1641 -129.992 71.3672C-131.375 70.5703 -132.465 69.3867 -133.262 67.8164C-134.035 66.2461 -134.422 64.1133 -134.422 61.418V47.5312H-138.078ZM-96.0664 40.8867C-96.0664 40.0898 -95.9961 39.3867 -95.8555 38.7773C-95.7148 38.1445 -95.4453 37.6289 -95.0469 37.2305C-94.6484 36.832 -94.0977 36.5273 -93.3945 36.3164C-92.6914 36.1055 -91.7773 36 -90.6523 36H-75.2539C-74.1758 36 -73.3086 36.1055 -72.6523 36.3164C-71.9727 36.5039 -71.4453 36.7969 -71.0703 37.1953C-70.6953 37.5938 -70.4492 38.0977 -70.332 38.707C-70.2148 39.3164 -70.1562 40.043 -70.1562 40.8867V67.1836C-70.1562 67.9805 -70.2148 68.6836 -70.332 69.293C-70.4492 69.8789 -70.6953 70.3828 -71.0703 70.8047C-71.4453 71.2031 -71.9727 71.5078 -72.6523 71.7188C-73.3086 71.9062 -74.1758 72 -75.2539 72H-90.6523C-91.7773 72 -92.6914 71.8945 -93.3945 71.6836C-94.0977 71.4727 -94.6484 71.168 -95.0469 70.7695C-95.4453 70.3711 -95.7148 69.8672 -95.8555 69.2578C-95.9961 68.6484 -96.0664 67.9336 -96.0664 67.1133V40.8867ZM-94.7656 20.9531C-94.7656 19.3359 -94.4609 17.8125 -93.8516 16.3828C-93.2188 14.9531 -92.375 13.7109 -91.3203 12.6562C-90.2656 11.6016 -89.0234 10.7695 -87.5938 10.1602C-86.1641 9.52734 -84.6406 9.21094 -83.0234 9.21094C-81.4297 9.21094 -79.9297 9.52734 -78.5234 10.1602C-77.0938 10.7695 -75.8516 11.6016 -74.7969 12.6562C-73.7422 13.7109 -72.9102 14.9531 -72.3008 16.3828C-71.668 17.8125 -71.3516 19.3359 -71.3516 20.9531C-71.3516 22.5469 -71.668 24.0586 -72.3008 25.4883C-72.9102 26.8945 -73.7422 28.125 -74.7969 29.1797C-75.8516 30.2344 -77.0938 31.0781 -78.5234 31.7109C-79.9297 32.3203 -81.4297 32.625 -83.0234 32.625C-84.6406 32.625 -86.1641 32.3203 -87.5938 31.7109C-89.0234 31.0781 -90.2656 30.2344 -91.3203 29.1797C-92.375 28.125 -93.2188 26.8945 -93.8516 25.4883C-94.4609 24.0586 -94.7656 22.5469 -94.7656 20.9531ZM-63.6523 40.8867C-63.6523 40.0898 -63.582 39.3867 -63.4414 38.7773C-63.3008 38.1445 -63.0312 37.6289 -62.6328 37.2305C-62.2344 36.832 -61.6836 36.5273 -60.9805 36.3164C-60.2773 36.1055 -59.3633 36 -58.2383 36H-43.8594C-42.8047 36 -41.9023 36.1055 -41.1523 36.3164C-40.3789 36.5273 -39.8281 36.8906 -39.5 37.4062C-39.1953 37.1953 -38.832 36.9727 -38.4102 36.7383C-37.9648 36.4805 -37.4844 36.2461 -36.9688 36.0352C-36.4531 35.8242 -35.9023 35.6484 -35.3164 35.5078C-34.7305 35.3672 -34.1211 35.2969 -33.4883 35.2969C-31.2383 35.2969 -29.4922 36.0703 -28.25 37.6172C-26.9844 39.1641 -26.3516 41.4375 -26.3516 44.4375V70.3477C-26.3516 70.7461 -26.4102 71.0625 -26.5273 71.2969C-26.6211 71.5078 -26.75 71.6719 -26.9141 71.7891C-27.0547 71.8828 -27.2305 71.9414 -27.4414 71.9648C-27.6523 71.9883 -27.8633 72 -28.0742 72H-30.3242C-30.9336 72 -31.332 71.8242 -31.5195 71.4727C-31.6836 71.1211 -31.7656 70.7461 -31.7656 70.3477V44.0859C-31.7656 42.75 -32.0117 41.7305 -32.5039 41.0273C-32.9727 40.3242 -33.7344 39.9727 -34.7891 39.9727C-35.3281 39.9727 -35.8789 40.125 -36.4414 40.4297C-36.9805 40.7109 -37.4141 41.0156 -37.7422 41.3438V67.0781C-37.7422 67.8984 -37.8125 68.6133 -37.9531 69.2227C-38.0938 69.832 -38.3633 70.3477 -38.7617 70.7695C-39.1602 71.168 -39.7109 71.4727 -40.4141 71.6836C-41.1172 71.8945 -42.0312 72 -43.1562 72H-58.2383C-59.3633 72 -60.2773 71.8945 -60.9805 71.6836C-61.6836 71.4727 -62.2344 71.168 -62.6328 70.7695C-63.0312 70.3711 -63.3008 69.8672 -63.4414 69.2578C-63.582 68.6484 -63.6523 67.9336 -63.6523 67.1133V40.8867ZM12.0039 66.1641C12.6367 66.1641 13.2109 66.082 13.7266 65.918C14.2422 65.7305 14.6992 65.5312 15.0977 65.3203C15.5195 65.1094 15.8594 64.9219 16.1172 64.7578C16.3984 64.5703 16.6094 64.4766 16.75 64.4766C16.9609 64.4766 17.1016 64.5117 17.1719 64.582C17.2656 64.6523 17.3711 64.7812 17.4883 64.9688L18.7188 66.8672C18.8359 67.0547 18.8945 67.2188 18.8945 67.3594C18.8945 67.5234 18.8477 67.6523 18.7539 67.7461C18.6602 67.8398 18.5664 67.9219 18.4727 67.9922C17.6992 68.5312 16.75 69.1172 15.625 69.75C14.5 70.3594 13.1875 70.9219 11.6875 71.4375C10.2109 71.9531 8.53516 72.375 6.66016 72.7031C4.78516 73.0547 2.72266 73.2305 0.472656 73.2305C-1.28516 73.2305 -3.04297 73.0898 -4.80078 72.8086C-6.55859 72.5273 -8.24609 72.082 -9.86328 71.4727C-11.457 70.8633 -12.9453 70.0664 -14.3281 69.082C-15.7109 68.0977 -16.918 66.8906 -17.9492 65.4609C-18.957 64.0312 -19.7539 62.3789 -20.3398 60.5039C-20.9258 58.6055 -21.2188 56.4375 -21.2188 54C-21.2188 51.6094 -20.9258 49.4766 -20.3398 47.6016C-19.7539 45.7031 -18.957 44.0391 -17.9492 42.6094C-16.918 41.1797 -15.7109 39.9727 -14.3281 38.9883C-12.9453 37.9805 -11.457 37.1719 -9.86328 36.5625C-8.24609 35.9297 -6.55859 35.4727 -4.80078 35.1914C-3.04297 34.9102 -1.28516 34.7695 0.472656 34.7695C3.40234 34.7695 6.12109 35.0977 8.62891 35.7539C11.1602 36.4102 13.3516 37.4883 15.2031 38.9883C17.0547 40.4883 18.5078 42.457 19.5625 44.8945C20.6172 47.332 21.1445 50.3203 21.1445 53.8594V55.8281C21.1445 56.25 21.0391 56.5781 20.8281 56.8125C20.6172 57.0469 20.2656 57.1641 19.7734 57.1641H5.21875C5.40625 58.8984 5.73438 60.3516 6.20312 61.5234C6.69531 62.6719 7.24609 63.5977 7.85547 64.3008C8.48828 64.9805 9.16797 65.4609 9.89453 65.7422C10.6211 66.0234 11.3242 66.1641 12.0039 66.1641ZM16.1523 52.8398C16.1523 50.9648 16 49.418 15.6953 48.1992C15.4141 46.957 15.0273 45.9727 14.5352 45.2461C14.043 44.4961 13.457 43.9688 12.7773 43.6641C12.1211 43.3594 11.4297 43.207 10.7031 43.207C10.1641 43.207 9.57812 43.3125 8.94531 43.5234C8.3125 43.7344 7.71484 44.1797 7.15234 44.8594C6.61328 45.5391 6.14453 46.5117 5.74609 47.7773C5.37109 49.043 5.14844 50.7305 5.07812 52.8398H16.1523Z" fill="#3A9B38"/>
<path d="M0.0184203 30.1416C-0.45293 17.3417 8.03177 8.25797 35.8427 0L0.0184203 30.1416Z" fill="#3A9B38"/>
<path d="M35.8427 0C36.3141 12.7999 27.8294 21.8836 0.0184479 30.1416L35.8427 0Z" fill="#3A9B38"/>
</g>
<defs>
<clipPath id="clip0">
<rect width="36" height="30" fill="white"/>
</clipPath>
</defs>
</svg>
