<svg width="349" height="131" viewBox="0 0 349 131" fill="none" xmlns="http://www.w3.org/2000/svg">
<path d="M16.1914 46.4375C16.1914 45.6172 16.2617 44.9023 16.4023 44.293C16.543 43.6836 16.8125 43.1797 17.2109 42.7812C17.6094 42.3594 18.1602 42.043 18.8633 41.832C19.5664 41.6211 20.4805 41.5156 21.6055 41.5156H37.2852C38.9023 41.5156 40.5078 41.6211 42.1016 41.832C43.6953 42.0195 45.2188 42.3477 46.6719 42.8164C48.1484 43.2852 49.5078 43.8945 50.75 44.6445C52.0156 45.3945 53.1055 46.332 54.0195 47.457C54.957 48.5586 55.6836 49.8594 56.1992 51.3594C56.7383 52.8359 57.0078 54.5469 57.0078 56.4922C57.0078 59.375 56.6094 61.8125 55.8125 63.8047C55.0391 65.7734 53.9844 67.4023 52.6484 68.6914C51.3125 69.9805 49.7539 70.9648 47.9727 71.6445C46.2148 72.3242 44.3633 72.8164 42.418 73.1211V86.3047C42.418 86.8438 42.3711 87.4414 42.2773 88.0977C42.1836 88.7539 41.9492 89.375 41.5742 89.9609C41.1992 90.5234 40.625 91.0039 39.8516 91.4023C39.0781 91.8008 38.0117 92 36.6523 92H21.6055C20.4805 92 19.5664 91.8945 18.8633 91.6836C18.1602 91.4727 17.6094 91.168 17.2109 90.7695C16.8125 90.3711 16.543 89.8672 16.4023 89.2578C16.2617 88.6484 16.1914 87.9336 16.1914 87.1133V46.4375ZM52.0508 57.0195C52.0508 55.6133 51.8633 54.3242 51.4883 53.1523C51.1133 51.957 50.5391 50.9141 49.7656 50.0234C48.9922 49.1328 47.9961 48.3945 46.7773 47.8086C45.5586 47.2227 44.1055 46.8242 42.418 46.6133V68.4453C44.1055 68.1875 45.5586 67.7188 46.7773 67.0391C47.9961 66.3594 48.9922 65.5156 49.7656 64.5078C50.5391 63.5 51.1133 62.3633 51.4883 61.0977C51.8633 59.8086 52.0508 58.4492 52.0508 57.0195ZM61.6836 60.8867C61.6836 60.0898 61.7539 59.3867 61.8945 58.7773C62.0352 58.1445 62.3047 57.6289 62.7031 57.2305C63.1016 56.832 63.6523 56.5273 64.3555 56.3164C65.0586 56.1055 65.9727 56 67.0977 56H82.4961C83.5742 56 84.4414 56.1055 85.0977 56.3164C85.7539 56.5273 86.2695 56.8438 86.6445 57.2656C87.0195 57.6875 87.2656 58.2148 87.3828 58.8477C87.5234 59.4805 87.5938 60.2188 87.5938 61.0625V63.6641L95.3984 56.0703C95.9141 55.5781 96.3945 55.332 96.8398 55.332C97.0977 55.332 97.3203 55.3906 97.5078 55.5078C97.7188 55.6016 97.8945 55.7188 98.0352 55.8594L99.6172 57.5117C99.9688 57.8633 100.145 58.25 100.145 58.6719C100.145 58.9297 100.062 59.1992 99.8984 59.4805C99.7578 59.7383 99.5234 59.9961 99.1953 60.2539L87.5938 69.2539V87.043C87.5938 87.8633 87.5352 88.5898 87.418 89.2227C87.3008 89.832 87.043 90.3477 86.6445 90.7695C86.2461 91.168 85.6719 91.4727 84.9219 91.6836C84.1719 91.8945 83.1523 92 81.8633 92H67.0977C65.9727 92 65.0586 91.8945 64.3555 91.6836C63.6523 91.4727 63.1016 91.168 62.7031 90.7695C62.3047 90.3711 62.0352 89.8672 61.8945 89.2578C61.7539 88.6484 61.6836 87.9336 61.6836 87.1133V60.8867ZM100.777 60.8867C100.777 60.0898 100.848 59.3867 100.988 58.7773C101.129 58.1445 101.398 57.6289 101.797 57.2305C102.195 56.832 102.746 56.5273 103.449 56.3164C104.152 56.1055 105.066 56 106.191 56H121.59C122.668 56 123.535 56.1055 124.191 56.3164C124.871 56.5039 125.398 56.7969 125.773 57.1953C126.148 57.5938 126.395 58.0977 126.512 58.707C126.629 59.3164 126.688 60.043 126.688 60.8867V87.1836C126.688 87.9805 126.629 88.6836 126.512 89.293C126.395 89.8789 126.148 90.3828 125.773 90.8047C125.398 91.2031 124.871 91.5078 124.191 91.7188C123.535 91.9062 122.668 92 121.59 92H106.191C105.066 92 104.152 91.8945 103.449 91.6836C102.746 91.4727 102.195 91.168 101.797 90.7695C101.398 90.3711 101.129 89.8672 100.988 89.2578C100.848 88.6484 100.777 87.9336 100.777 87.1133V60.8867ZM102.078 40.9531C102.078 39.3359 102.383 37.8125 102.992 36.3828C103.625 34.9531 104.469 33.7109 105.523 32.6562C106.578 31.6016 107.82 30.7695 109.25 30.1602C110.68 29.5273 112.203 29.2109 113.82 29.2109C115.414 29.2109 116.914 29.5273 118.32 30.1602C119.75 30.7695 120.992 31.6016 122.047 32.6562C123.102 33.7109 123.934 34.9531 124.543 36.3828C125.176 37.8125 125.492 39.3359 125.492 40.9531C125.492 42.5469 125.176 44.0586 124.543 45.4883C123.934 46.8945 123.102 48.125 122.047 49.1797C120.992 50.2344 119.75 51.0781 118.32 51.7109C116.914 52.3203 115.414 52.625 113.82 52.625C112.203 52.625 110.68 52.3203 109.25 51.7109C107.82 51.0781 106.578 50.2344 105.523 49.1797C104.469 48.125 103.625 46.8945 102.992 45.4883C102.383 44.0586 102.078 42.5469 102.078 40.9531ZM158.258 54.7695C159.758 54.7695 161.258 54.8633 162.758 55.0508C164.258 55.2148 165.676 55.4375 167.012 55.7188C168.371 56 169.602 56.3164 170.703 56.668C171.828 56.9961 172.742 57.3242 173.445 57.6523C173.562 57.6992 173.68 57.7695 173.797 57.8633C173.938 57.957 174.008 58.1328 174.008 58.3906C174.008 58.4609 173.996 58.5547 173.973 58.6719C173.949 58.7891 173.926 58.9062 173.902 59.0234L173.48 61.0977C173.434 61.3789 173.363 61.5547 173.27 61.625C173.199 61.6719 173.129 61.6953 173.059 61.6953C172.941 61.6953 172.719 61.6602 172.391 61.5898C172.062 61.5195 171.711 61.4844 171.336 61.4844C170 61.4844 168.945 61.8477 168.172 62.5742C167.398 63.2773 166.906 64.5195 166.695 66.3008L164.727 82.7188C164.539 84.1719 164.047 85.5312 163.25 86.7969C162.477 88.0625 161.352 89.1758 159.875 90.1367C158.398 91.0977 156.57 91.8477 154.391 92.3867C152.234 92.9492 149.703 93.2305 146.797 93.2305C144.969 93.2305 143.188 93.1133 141.453 92.8789C139.719 92.668 138.113 92.3984 136.637 92.0703C135.184 91.7656 133.906 91.4609 132.805 91.1562C131.727 90.8281 130.918 90.5703 130.379 90.3828C130.191 90.3359 130.051 90.2773 129.957 90.207C129.84 90.1133 129.781 89.9727 129.781 89.7852C129.781 89.6914 129.793 89.5859 129.816 89.4688C129.84 89.3516 129.875 89.2109 129.922 89.0469L130.344 87.0781C130.391 86.8906 130.473 86.7383 130.59 86.6211C130.707 86.5039 130.918 86.4453 131.223 86.4453C131.996 86.4453 132.77 86.4102 133.543 86.3398C134.34 86.2461 135.066 86.0234 135.723 85.6719C136.402 85.3203 136.988 84.7812 137.48 84.0547C137.996 83.3281 138.348 82.3086 138.535 80.9961L140.996 64.0508C141.254 62.2695 141.91 60.7812 142.965 59.5859C144.02 58.3906 145.32 57.4414 146.867 56.7383C148.438 56.0117 150.207 55.5078 152.176 55.2266C154.145 54.9219 156.172 54.7695 158.258 54.7695ZM174.922 67.5312C174.43 67.5312 174.184 67.2734 174.184 66.7578V63.9453C174.184 63.4531 174.43 63.207 174.922 63.207H178.578V55.2266C178.578 54.875 178.625 54.5234 178.719 54.1719C178.836 53.8203 179.129 53.5508 179.598 53.3633L199.004 46.1914C199.895 45.8633 200.633 45.6172 201.219 45.4531C201.805 45.2891 202.32 45.207 202.766 45.207C202.93 45.207 203.105 45.2422 203.293 45.3125C203.504 45.3594 203.691 45.4531 203.855 45.5938C204.043 45.7344 204.195 45.9336 204.312 46.1914C204.43 46.4258 204.488 46.7188 204.488 47.0703V63.207H210.816C211.309 63.207 211.555 63.4531 211.555 63.9453V66.7578C211.555 67.2734 211.309 67.5312 210.816 67.5312H204.488V81.6992C204.488 83.3633 204.758 84.5352 205.297 85.2148C205.859 85.8945 206.715 86.2344 207.863 86.2344C208.121 86.2344 208.391 86.2109 208.672 86.1641C208.953 86.0938 209.211 86.0352 209.445 85.9883C209.703 85.918 209.938 85.8594 210.148 85.8125C210.359 85.7422 210.535 85.707 210.676 85.707C210.934 85.707 211.062 85.8594 211.062 86.1641V88.8711C211.062 89.3398 210.969 89.6562 210.781 89.8203C210.594 89.9844 210.43 90.0898 210.289 90.1367C209.398 90.5117 208.344 90.8867 207.125 91.2617C205.93 91.6367 204.629 91.9648 203.223 92.2461C201.84 92.5508 200.375 92.7852 198.828 92.9492C197.281 93.1367 195.734 93.2305 194.188 93.2305C191.961 93.2305 189.887 93.1133 187.965 92.8789C186.066 92.668 184.414 92.1641 183.008 91.3672C181.625 90.5703 180.535 89.3867 179.738 87.8164C178.965 86.2461 178.578 84.1133 178.578 81.418V67.5312H174.922ZM216.934 60.8867C216.934 60.0898 217.004 59.3867 217.145 58.7773C217.285 58.1445 217.555 57.6289 217.953 57.2305C218.352 56.832 218.902 56.5273 219.605 56.3164C220.309 56.1055 221.223 56 222.348 56H237.746C238.824 56 239.691 56.1055 240.348 56.3164C241.027 56.5039 241.555 56.7969 241.93 57.1953C242.305 57.5938 242.551 58.0977 242.668 58.707C242.785 59.3164 242.844 60.043 242.844 60.8867V87.1836C242.844 87.9805 242.785 88.6836 242.668 89.293C242.551 89.8789 242.305 90.3828 241.93 90.8047C241.555 91.2031 241.027 91.5078 240.348 91.7188C239.691 91.9062 238.824 92 237.746 92H222.348C221.223 92 220.309 91.8945 219.605 91.6836C218.902 91.4727 218.352 91.168 217.953 90.7695C217.555 90.3711 217.285 89.8672 217.145 89.2578C217.004 88.6484 216.934 87.9336 216.934 87.1133V60.8867ZM218.234 40.9531C218.234 39.3359 218.539 37.8125 219.148 36.3828C219.781 34.9531 220.625 33.7109 221.68 32.6562C222.734 31.6016 223.977 30.7695 225.406 30.1602C226.836 29.5273 228.359 29.2109 229.977 29.2109C231.57 29.2109 233.07 29.5273 234.477 30.1602C235.906 30.7695 237.148 31.6016 238.203 32.6562C239.258 33.7109 240.09 34.9531 240.699 36.3828C241.332 37.8125 241.648 39.3359 241.648 40.9531C241.648 42.5469 241.332 44.0586 240.699 45.4883C240.09 46.8945 239.258 48.125 238.203 49.1797C237.148 50.2344 235.906 51.0781 234.477 51.7109C233.07 52.3203 231.57 52.625 229.977 52.625C228.359 52.625 226.836 52.3203 225.406 51.7109C223.977 51.0781 222.734 50.2344 221.68 49.1797C220.625 48.125 219.781 46.8945 219.148 45.4883C218.539 44.0586 218.234 42.5469 218.234 40.9531ZM249.348 60.8867C249.348 60.0898 249.418 59.3867 249.559 58.7773C249.699 58.1445 249.969 57.6289 250.367 57.2305C250.766 56.832 251.316 56.5273 252.02 56.3164C252.723 56.1055 253.637 56 254.762 56H269.141C270.195 56 271.098 56.1055 271.848 56.3164C272.621 56.5273 273.172 56.8906 273.5 57.4062C273.805 57.1953 274.168 56.9727 274.59 56.7383C275.035 56.4805 275.516 56.2461 276.031 56.0352C276.547 55.8242 277.098 55.6484 277.684 55.5078C278.27 55.3672 278.879 55.2969 279.512 55.2969C281.762 55.2969 283.508 56.0703 284.75 57.6172C286.016 59.1641 286.648 61.4375 286.648 64.4375V90.3477C286.648 90.7461 286.59 91.0625 286.473 91.2969C286.379 91.5078 286.25 91.6719 286.086 91.7891C285.945 91.8828 285.77 91.9414 285.559 91.9648C285.348 91.9883 285.137 92 284.926 92H282.676C282.066 92 281.668 91.8242 281.48 91.4727C281.316 91.1211 281.234 90.7461 281.234 90.3477V64.0859C281.234 62.75 280.988 61.7305 280.496 61.0273C280.027 60.3242 279.266 59.9727 278.211 59.9727C277.672 59.9727 277.121 60.125 276.559 60.4297C276.02 60.7109 275.586 61.0156 275.258 61.3438V87.0781C275.258 87.8984 275.188 88.6133 275.047 89.2227C274.906 89.832 274.637 90.3477 274.238 90.7695C273.84 91.168 273.289 91.4727 272.586 91.6836C271.883 91.8945 270.969 92 269.844 92H254.762C253.637 92 252.723 91.8945 252.02 91.6836C251.316 91.4727 250.766 91.168 250.367 90.7695C249.969 90.3711 249.699 89.8672 249.559 89.2578C249.418 88.6484 249.348 87.9336 249.348 87.1133V60.8867ZM325.004 86.1641C325.637 86.1641 326.211 86.082 326.727 85.918C327.242 85.7305 327.699 85.5312 328.098 85.3203C328.52 85.1094 328.859 84.9219 329.117 84.7578C329.398 84.5703 329.609 84.4766 329.75 84.4766C329.961 84.4766 330.102 84.5117 330.172 84.582C330.266 84.6523 330.371 84.7812 330.488 84.9688L331.719 86.8672C331.836 87.0547 331.895 87.2188 331.895 87.3594C331.895 87.5234 331.848 87.6523 331.754 87.7461C331.66 87.8398 331.566 87.9219 331.473 87.9922C330.699 88.5312 329.75 89.1172 328.625 89.75C327.5 90.3594 326.188 90.9219 324.688 91.4375C323.211 91.9531 321.535 92.375 319.66 92.7031C317.785 93.0547 315.723 93.2305 313.473 93.2305C311.715 93.2305 309.957 93.0898 308.199 92.8086C306.441 92.5273 304.754 92.082 303.137 91.4727C301.543 90.8633 300.055 90.0664 298.672 89.082C297.289 88.0977 296.082 86.8906 295.051 85.4609C294.043 84.0312 293.246 82.3789 292.66 80.5039C292.074 78.6055 291.781 76.4375 291.781 74C291.781 71.6094 292.074 69.4766 292.66 67.6016C293.246 65.7031 294.043 64.0391 295.051 62.6094C296.082 61.1797 297.289 59.9727 298.672 58.9883C300.055 57.9805 301.543 57.1719 303.137 56.5625C304.754 55.9297 306.441 55.4727 308.199 55.1914C309.957 54.9102 311.715 54.7695 313.473 54.7695C316.402 54.7695 319.121 55.0977 321.629 55.7539C324.16 56.4102 326.352 57.4883 328.203 58.9883C330.055 60.4883 331.508 62.457 332.562 64.8945C333.617 67.332 334.145 70.3203 334.145 73.8594V75.8281C334.145 76.25 334.039 76.5781 333.828 76.8125C333.617 77.0469 333.266 77.1641 332.773 77.1641H318.219C318.406 78.8984 318.734 80.3516 319.203 81.5234C319.695 82.6719 320.246 83.5977 320.855 84.3008C321.488 84.9805 322.168 85.4609 322.895 85.7422C323.621 86.0234 324.324 86.1641 325.004 86.1641ZM329.152 72.8398C329.152 70.9648 329 69.418 328.695 68.1992C328.414 66.957 328.027 65.9727 327.535 65.2461C327.043 64.4961 326.457 63.9688 325.777 63.6641C325.121 63.3594 324.43 63.207 323.703 63.207C323.164 63.207 322.578 63.3125 321.945 63.5234C321.312 63.7344 320.715 64.1797 320.152 64.8594C319.613 65.5391 319.145 66.5117 318.746 67.7773C318.371 69.043 318.148 70.7305 318.078 72.8398H329.152Z" fill="#3A9B38"/>
<path d="M313.018 50.1416C312.547 37.3417 321.032 28.258 348.843 20L313.018 50.1416Z" fill="#3A9B38"/>
<path d="M348.843 20C349.314 32.7999 340.829 41.8836 313.018 50.1416L348.843 20Z" fill="#3A9B38"/>
</svg>
